<svg width="218" height="18" fill="none" xmlns="http://www.w3.org/2000/svg"><path d="M15.172 9.336c0 .65-.088 1.266-.264 1.846a5.555 5.555 0 01-.732 1.562 5.26 5.26 0 01-1.143 1.23 5.345 5.345 0 01-1.484.83l2.969 2.354h-3.682l-2.441-1.963h-2.5c-.84 0-1.618-.143-2.334-.43a5.579 5.579 0 01-1.856-1.22 5.705 5.705 0 01-1.23-1.856 6.158 6.158 0 01-.44-2.353V6.66c0-.846.147-1.628.44-2.344a5.6 5.6 0 011.23-1.855 5.57 5.57 0 011.856-1.22A6.105 6.105 0 015.895.8h3.437c.84 0 1.615.146 2.324.44a5.564 5.564 0 011.856 1.22c.52.514.928 1.133 1.22 1.855a6.13 6.13 0 01.44 2.344v2.676zm-2.54-2.676c0-.501-.08-.954-.243-1.357a2.866 2.866 0 00-.674-1.045 2.865 2.865 0 00-1.045-.674 3.546 3.546 0 00-1.338-.244H5.895a3.65 3.65 0 00-1.358.244c-.404.156-.752.38-1.045.674-.293.286-.52.635-.683 1.045a3.735 3.735 0 00-.235 1.357v2.676c0 .501.078.957.235 1.367.162.404.39.752.683 1.045.293.286.641.511 1.045.674.41.156.863.234 1.358.234h3.418c.494 0 .944-.078 1.347-.234a3.15 3.15 0 001.055-.674 2.98 2.98 0 00.674-1.045c.162-.41.244-.866.244-1.367V6.66zm18.77 7.06a1.259 1.259 0 01-.371.918c-.117.111-.254.2-.41.264a1.282 1.282 0 01-.498.098H24.4a7.91 7.91 0 01-1.64-.176 7.564 7.564 0 01-1.612-.537 7.121 7.121 0 01-1.455-.937 6.236 6.236 0 01-1.2-1.338 6.716 6.716 0 01-.802-1.778c-.195-.67-.293-1.416-.293-2.236V.996h2.54v7.002c0 .716.097 1.322.293 1.816.201.495.455.909.761 1.24a3.65 3.65 0 001.006.782c.365.189.71.329 1.035.42.332.09.622.15.87.176.253.02.42.029.497.029h4.463V.996h2.54v12.725zm16.7 1.28h-2.54v-3.438h-8.925V15h-2.54V7.998c0-1.022.176-1.963.528-2.822.352-.86.84-1.599 1.465-2.217a6.67 6.67 0 012.217-1.445c.852-.345 1.783-.518 2.793-.518h5.722a1.282 1.282 0 01.908.371 1.282 1.282 0 01.371.908V15zM36.637 9.023h8.925V3.535H41.1a6.33 6.33 0 00-.498.04 4.74 4.74 0 00-.87.165 5.49 5.49 0 00-1.035.42c-.364.189-.7.45-1.006.781-.306.332-.56.75-.761 1.25-.196.495-.293 1.097-.293 1.807v1.025zm28.418 4.893c0 .182-.036.351-.108.508a1.224 1.224 0 01-.674.674 1.281 1.281 0 01-.498.097c-.156 0-.315-.029-.478-.088a1.116 1.116 0 01-.42-.283L53.6 5.137V15h-2.54V2.08c0-.26.072-.495.215-.703.15-.215.339-.374.567-.479.24-.097.488-.12.742-.068.254.046.472.163.654.352l9.278 9.677V.996h2.539v12.92zM80.67 3.535h-5.596V15h-2.539V3.535H66.93V.996h13.74v2.54zM96.266 13.72c0 .183-.033.352-.098.508a1.259 1.259 0 01-.274.41c-.117.111-.253.2-.41.264a1.282 1.282 0 01-.498.098h-5.722a7.91 7.91 0 01-1.641-.176 7.565 7.565 0 01-1.611-.537c-.515-.247-1-.56-1.455-.937a6.238 6.238 0 01-1.201-1.338 6.716 6.716 0 01-.801-1.778c-.196-.67-.293-1.416-.293-2.236V.996H84.8v7.002c0 .716.097 1.322.293 1.816.202.495.456.909.762 1.24.306.333.64.593 1.005.782.365.189.71.329 1.035.42.332.09.622.15.87.176.253.02.42.029.498.029h4.463V.996h2.539v12.725zM115.523 15h-2.558V6.66l-4.502 7.92a1.101 1.101 0 01-.469.459 1.327 1.327 0 01-.635.156c-.221 0-.429-.052-.625-.156a1.137 1.137 0 01-.449-.459l-4.521-7.92V15h-2.54V2.08c0-.293.085-.553.254-.781a1.28 1.28 0 01.684-.46 1.25 1.25 0 01.41-.029c.137.007.267.036.391.088.13.046.247.114.351.205a1.1 1.1 0 01.264.313l5.781 10.049 5.782-10.049c.149-.247.354-.423.615-.527.267-.105.543-.12.83-.05.273.079.498.232.674.46.176.228.263.488.263.781V15zm22.92-4.121c0 .501-.065.954-.195 1.357a3.97 3.97 0 01-.498 1.055 3.348 3.348 0 01-.732.781c-.28.215-.57.39-.87.528a4.316 4.316 0 01-.918.302 4.177 4.177 0 01-.869.098h-9.795v-2.54h9.795c.489 0 .866-.142 1.133-.429.274-.286.41-.67.41-1.152 0-.234-.036-.45-.107-.645a1.45 1.45 0 00-.313-.508 1.301 1.301 0 00-.488-.332 1.646 1.646 0 00-.635-.117h-5.84c-.41 0-.852-.071-1.328-.215a4.114 4.114 0 01-1.328-.712 3.949 3.949 0 01-1.015-1.28c-.267-.527-.401-1.172-.401-1.933 0-.762.134-1.403.401-1.924a3.95 3.95 0 011.015-1.28c.41-.332.853-.57 1.328-.712a4.44 4.44 0 011.328-.225h8.643v2.54h-8.643c-.481 0-.859.146-1.132.439-.267.293-.401.68-.401 1.162 0 .488.134.875.401 1.162.273.28.651.42 1.132.42h5.86c.273.006.563.045.869.117.306.065.609.17.908.312.306.144.596.326.869.547.274.215.515.476.723.781.215.306.384.658.508 1.055.124.397.185.846.185 1.348zm15.313-5.195c0 .579-.075 1.097-.225 1.552a4.52 4.52 0 01-.576 1.211 3.934 3.934 0 01-.85.889 5.348 5.348 0 01-.996.615c-.345.156-.696.27-1.054.342a5.007 5.007 0 01-.996.107h-1.026V15h-2.558v-4.6h-1.016a5.142 5.142 0 01-2.061-.449 5.348 5.348 0 01-.996-.615 4.235 4.235 0 01-.849-.889 4.759 4.759 0 01-.586-1.21 5.243 5.243 0 01-.215-1.553V.996h2.539v4.688c0 .332.052.631.156.898.104.26.251.485.44.674.189.189.416.335.683.44.274.097.576.146.909.146h4.58c.24-.04.488-.088.742-.147.254-.065.485-.172.693-.322a1.72 1.72 0 00.518-.625c.136-.267.205-.622.205-1.064V.996h2.539v4.688zm15.742 5.195c0 .501-.065.954-.195 1.357a3.97 3.97 0 01-.498 1.055 3.373 3.373 0 01-.733.781c-.28.215-.569.39-.869.528a4.316 4.316 0 01-.918.302 4.184 4.184 0 01-.869.098h-9.795v-2.54h9.795c.488 0 .866-.142 1.133-.429.273-.286.41-.67.41-1.152 0-.234-.036-.45-.107-.645a1.45 1.45 0 00-.313-.508 1.301 1.301 0 00-.488-.332 1.65 1.65 0 00-.635-.117h-5.84c-.41 0-.853-.071-1.328-.215a4.114 4.114 0 01-1.328-.712 3.952 3.952 0 01-1.016-1.28c-.267-.527-.4-1.172-.4-1.933 0-.762.133-1.403.4-1.924a3.952 3.952 0 011.016-1.28c.41-.332.853-.57 1.328-.712.475-.15.918-.225 1.328-.225h8.643v2.54h-8.643c-.482 0-.859.146-1.133.439-.267.293-.4.68-.4 1.162 0 .488.133.875.4 1.162.274.28.651.42 1.133.42h5.86c.273.006.563.045.869.117.306.065.608.17.908.312.306.144.596.326.869.547.273.215.514.476.723.781.215.306.384.658.507 1.055.124.397.186.846.186 1.348zm14.609-7.344h-5.595V15h-2.539V3.535h-5.606V.996h13.74v2.54zm13.389 5.742h-8.017V6.72h8.017v2.558zM198.639 15h-9.16c-.352 0-.736-.062-1.153-.186a3.49 3.49 0 01-1.162-.605 3.582 3.582 0 01-.889-1.104c-.234-.455-.351-1.012-.351-1.67v-9.16c0-.175.032-.341.097-.498.066-.156.153-.293.264-.41.117-.117.254-.208.41-.273.157-.065.326-.098.508-.098h11.436v2.54h-10.176v7.9c0 .332.088.585.264.761.175.176.433.264.771.264h9.141V15zm18.759 0h-2.558V6.66l-4.502 7.92a1.101 1.101 0 01-.469.459 1.327 1.327 0 01-.635.156c-.221 0-.429-.052-.625-.156a1.137 1.137 0 01-.449-.459l-4.521-7.92V15H201.1V2.08c0-.293.084-.553.254-.781.175-.228.403-.381.683-.46a1.25 1.25 0 01.41-.029c.137.007.267.036.391.088.13.046.247.114.351.205a1.1 1.1 0 01.264.313l5.781 10.049 5.782-10.049c.149-.247.354-.423.615-.527.267-.105.543-.12.83-.05.273.079.498.232.674.46.176.228.263.488.263.781V15z" fill="#fff"/></svg>